<svg width="27" height="30" viewBox="0 0 27 30" fill="none" xmlns="http://www.w3.org/2000/svg">
<path d="M13.6893 29C21.0958 29 26.3861 26.3642 26.3861 20.4963C26.3861 14.1196 23.2119 9.86772 16.8635 6.67829L19.3605 3.44628C19.4877 3.23427 19.5568 2.99214 19.5607 2.74455C19.5646 2.49696 19.5032 2.25275 19.3827 2.0368C19.2623 1.82085 19.0871 1.64087 18.8751 1.51521C18.663 1.38954 18.4216 1.32267 18.1755 1.32141H9.20306C8.95747 1.32398 8.7169 1.39166 8.5056 1.51764C8.29431 1.64361 8.11976 1.82341 7.99958 2.03891C7.87939 2.25442 7.81781 2.498 7.82105 2.74509C7.82429 2.99218 7.89223 3.23404 8.01802 3.44628L10.5151 6.69958C4.16664 9.9103 0.992432 14.1622 0.992432 20.5389C0.992432 26.3642 6.28279 29 13.6893 29Z" fill="#FFCE32" stroke="#D2B982" stroke-linecap="round" stroke-linejoin="round"/>
<path d="M10.0515 13.8058H17.152M10.0515 16.6844H17.152M13.0941 13.8058C13.7704 13.9799 15.123 14.5919 15.123 16.4224C15.123 19.5631 11.0651 19.5631 11.0651 19.5631C11.0651 19.5631 13.0941 21.3954 16.1366 22.1815" stroke="#002F34" stroke-width="1.5" stroke-linecap="round" stroke-linejoin="round"/>
</svg>
